# xmcd
#
# Track frame offsets: 
#        150
#        18609
#        39526
#        62334
#        78548
#        99436
#        118829
#        137665
#        153433
#        172722
#        194062
#        213893
#
# Disc length: 3078 seconds
#
# Revision: 1
# Processed by: cddbd v1.5.2PL0 Copyright (c) Steve Scherf et al.
# Submitted via: ExactAudioCopy v0.99pb5
#
DISCID=9c0c040c
DTITLE=Sonora  Carruseles - Free  Bonus
DYEAR=2003
DGENRE=Salsa
TTITLE0=Al Son de Los Cueros
TTITLE1=La Comay
TTITLE2=De una Vez Gozando
TTITLE3=Arranca En Fa
TTITLE4=Repica El Tambo
TTITLE5=Este es mi Son
TTITLE6=Micaela
TTITLE7=Boogaloo Pa' Gozar
TTITLE8=Para Ustedes
TTITLE9=Vengo Caliente
TTITLE10=Que Suene mi Campana
TTITLE11=Mosaico Cumbias
EXTD=YEAR: 2003
EXTT0=
EXTT1=
EXTT2=
EXTT3=
EXTT4=
EXTT5=
EXTT6=
EXTT7=
EXTT8=
EXTT9=
EXTT10=
EXTT11=
PLAYORDER=
